<svg xmlns="http://www.w3.org/2000/svg" viewBox="0 0 96 96" role="img" aria-label="Eye Dong Do">
  <defs>
    <linearGradient id="markBg" x1="12" y1="8" x2="84" y2="88" gradientUnits="userSpaceOnUse">
      <stop offset="0" stop-color="#d7fffb"/>
      <stop offset="1" stop-color="#73d6d2"/>
    </linearGradient>
    <radialGradient id="iris" cx="48" cy="48" r="21" gradientUnits="userSpaceOnUse">
      <stop offset="0" stop-color="#76ddd7"/>
      <stop offset="0.58" stop-color="#167b83"/>
      <stop offset="1" stop-color="#062938"/>
    </radialGradient>
  </defs>
  <rect x="5" y="5" width="86" height="86" rx="22" fill="url(#markBg)"/>
  <circle cx="48" cy="48" r="36" fill="none" stroke="#33bbb7" stroke-width="4"/>
  <circle cx="48" cy="48" r="31" fill="none" stroke="#e9fffc" stroke-width="2.5" opacity="0.78"/>
  <path d="M19 51C28 38 39 32 49 32c11 0 22 6 31 18-9 12-20 18-31 18-10 0-21-5-30-17Z" fill="#ffffff" opacity="0.92"/>
  <path d="M18 51c11-16 23-23 36-20 9 2 15 7 24 17" fill="none" stroke="#39bfc0" stroke-width="5.4" stroke-linecap="round"/>
  <path d="M19 55c13 9 27 14 43 8 7-3 13-8 18-13" fill="none" stroke="#073044" stroke-width="4" stroke-linecap="round"/>
  <circle cx="49" cy="50" r="13" fill="url(#iris)"/>
  <circle cx="54" cy="43" r="4" fill="#ffffff" opacity="0.8"/>
</svg>
